<?xml version="1.0" encoding="UTF-8"?>
<svg version="1.1" viewBox="0 0 600 250" xml:space="preserve" xmlns="http://www.w3.org/2000/svg">
 
<path d="m187.24 23.386c-14.983 0.01847-31.167 4.9179-41.743 9.8272v-0.03081c-17.705 8.0873-29.25 16.442-37.861 25.631-8.2745 8.8264-13.799 18.347-19.624 28.927h-32.008c-0.92764 0-1.7656 0.52864-2.1872 1.3555l-4.1897 8.1945c-0.38939 0.76399-0.35476 1.6722 0.09242 2.4029 0.44718 0.73072 1.2688 1.1706 2.1256 1.1706h30.313l-56.93 121.04c-0.43417 0.92135-0.24357 2.0365 0.46209 2.7726l1.1398 1.1706c0.5588 0.58297 1.3584 0.86405 2.1564 0.73935l23.228-3.6043c0.77299-0.11988 1.4566-0.60023 1.8176-1.2939l62.814-120.82h39.956c0.89584 0 1.719-0.48182 2.1564-1.2631l4.5593-8.1945c0.42512-0.76154 0.41033-1.682-0.0308-2.4337-0.44115-0.75291-1.2532-1.2322-2.1256-1.2322h-37.892l11.583-23.844 0.0308-0.0308c2.6436-5.6807 5.571-11.577 10.413-15.988 2.4238-2.2119 5.3122-4.08 8.9954-5.4219 3.682-1.3407 8.1772-2.1552 13.74-2.1564 3.9962-0.0038 7.9776 0.94021 11.953 1.9408 3.9752 0.98826 7.9148 2.0542 11.984 2.064 2.1232 0.0025 4.0677-0.5422 5.6992-1.3863 2.4571-1.2742 4.2587-3.1804 5.4835-5.083 0.61243-0.95622 1.0856-1.9063 1.4171-2.8342 0.32901-0.93405 0.51754-1.8348 0.5237-2.7726 2e-3 -0.94144-0.20331-1.8595-0.58531-2.6802-0.67527-1.4454-1.82-2.4854-3.0806-3.2655-1.9075-1.1694-4.1835-1.8385-6.6542-2.2797-2.4707-0.43376-5.12-0.6149-7.7324-0.61612zm203.44 51.601c-28.098 0.0099-55.874 8.8081-76.769 21.657-10.447 6.4323-19.187 13.9-25.384 21.872-6.1859 7.9653-9.8506 16.494-9.858 25.076-2e-3 3.6563 0.82683 7.3993 2.6801 10.875 2.7775 5.2222 7.8322 9.8012 15.434 13 7.6104 3.2072 17.789 5.0807 31.145 5.083 34.032 4e-3 62.252-11.371 87.551-25.816 0.75045-0.42882 1.2458-1.2299 1.2631-2.0948 0.0185-0.86405-0.43745-1.6977-1.1706-2.1564l-5.3295-3.3271c-0.7258-0.45495-1.6364-0.50537-2.4029-0.12323-21.477 10.702-43.588 18.029-65.094 18.022-8.6935 9e-3 -16.193-1.3295-21.256-3.6659-2.536-1.161-4.457-2.541-5.6684-4.0356-1.2088-1.507-1.7744-3.0672-1.7868-4.9598 5e-3 -4.4059 0.57297-8.5076 2.2489-12.754 20.335-1.0516 47.902-3.8348 70.854-9.6424 11.769-2.987 22.312-6.7441 30.129-11.614 3.9062-2.4411 7.1668-5.1656 9.4883-8.3177 2.3203-3.1398 3.6733-6.7835 3.666-10.69 4e-3 -1.7338-0.40788-3.385-1.1706-4.8366-1.3432-2.5557-3.6167-4.4386-6.3153-5.9148-4.0664-2.2082-9.2579-3.5674-14.879-4.4361-5.6203-0.8601-11.655-1.2002-17.375-1.2014zm144.57 0c-28.097 0.0099-55.839 8.8081-76.738 21.657-10.448 6.4323-19.186 13.9-25.384 21.872-6.1871 7.9653-9.8814 16.494-9.8888 25.076-2e-3 3.6563 0.82684 7.3993 2.6802 10.875 2.7775 5.2222 7.8334 9.8012 15.434 13 7.6104 3.2072 17.789 5.0807 31.145 5.083 34.043 4e-3 62.252-11.372 87.551-25.816 0.75168-0.42882 1.2446-1.2298 1.2631-2.0948 0.0172-0.86344-0.43868-1.6968-1.1706-2.1564l-5.3295-3.3271c-0.7258-0.45434-1.6364-0.50537-2.4029-0.12323-21.489 10.702-43.601 18.029-65.094 18.022-8.6935 9e-3 -16.193-1.3295-21.256-3.6659-2.536-1.161-4.4262-2.541-5.6376-4.0356-1.2088-1.507-1.8052-3.0672-1.8176-4.9598 5e-3 -4.4016 0.57826-8.5028 2.2488-12.754 20.337-1.0507 47.895-3.8325 70.854-9.6424 11.768-2.987 22.314-6.7441 30.129-11.614 3.905-2.4411 7.1668-5.1656 9.4883-8.3177 2.3191-3.1398 3.6746-6.7848 3.666-10.69 4e-3 -1.7338-0.40787-3.385-1.1706-4.8366-1.3432-2.5544-3.6167-4.4386-6.3153-5.9148-4.0652-2.2082-9.2604-3.5674-14.879-4.4361-5.6154-0.8601-11.663-1.2002-17.375-1.2014zm-311.79 2.3413c-5.0769 0.0061-10.618 1.2828-16.297 3.2347-8.5112 2.934-17.334 7.4243-24.953 11.891-7.6202 4.4718-14.014 8.903-17.683 11.706-0.62845 0.47934-0.97964 1.2433-0.955 2.0332 0.0247 0.78988 0.42144 1.5304 1.0782 1.9716l4.9598 3.3271c0.81451 0.54712 1.8853 0.56191 2.711 0.0308 2.9784-1.9186 8.3165-5.1607 14.109-7.8864 2.8946-1.3629 5.9-2.6025 8.749-3.4811 2.8453-0.88229 5.534-1.39 7.7324-1.3863 1.9926 0.0061 3.1817 0.55328 3.8816 1.1398 0.70732 0.58654 0.90817 1.2643 0.89338 1.4787 5e-3 0.36968-0.0936 1.1004-0.33886 1.9408-0.7184 2.5594-2.5434 6.1933-3.8816 8.3793l-0.0308 0.0616-29.975 54.034c-0.19715 0.30807-0.4436 0.68155-0.67773 1.1706-0.22797 0.48663-0.45839 1.1226-0.46209 1.9408-1e-3 0.53381 0.14664 1.0287 0.33886 1.4171 0.37338 0.73306 0.84164 1.1619 1.2939 1.5095 0.80098 0.58866 1.6623 0.96127 2.6494 1.3247 1.4713 0.53147 3.1952 0.95882 4.9906 1.2631 1.7942 0.30078 3.6586 0.49141 5.3603 0.4929 3.4528-1e-3 6.7133-0.0447 9.3343-0.27727 1.3173-0.11977 2.4608-0.28206 3.4811-0.55451 0.51385-0.13911 1.0068-0.31816 1.5095-0.58531 0.4892-0.27245 1.0634-0.64299 1.5095-1.4171l0.0308-0.0308 6.839-12.538c6.2288-9.9283 16.025-24.27 27.387-36.043 5.6967-5.9086 11.768-11.156 17.929-14.879 6.165-3.7337 12.376-5.9197 18.33-5.9148 4.2981-0.01 9.2333 0.7603 14.078 0.77016 3.2963 2e-3 6.1415-0.69869 8.5333-1.8792 3.5982-1.7695 6.0886-4.531 7.64-7.3011 0.77755-1.39 1.3259-2.78 1.6943-4.0972 0.36721-1.3185 0.55328-2.568 0.55451-3.6968 4e-3 -1.4368-0.32531-2.8564-1.0474-4.0972-0.53727-0.93035-1.2828-1.751-2.1564-2.4029-1.3173-0.9784-2.9143-1.6118-4.7442-2.0332-1.8324-0.4202-3.9013-0.61489-6.2845-0.61612-6.5864 0.01238-13.618 2.3364-20.702 5.8224-10.617 5.2445-21.387 13.213-30.529 20.825-4.0492 3.3729-7.707 6.6199-10.936 9.5808l8.0096-14.91 0.0308-0.03081c1.1694-2.2205 2.1416-4.2808 2.865-6.1612 0.36105-0.94145 0.68021-1.8595 0.89339-2.711 0.21071-0.85395 0.3364-1.6635 0.33886-2.4953 0.0111-1.7954-0.55204-3.5058-1.6019-4.8674-0.78001-1.0252-1.7929-1.8508-2.9266-2.4953-1.7054-0.96609-3.7116-1.5711-5.9764-1.9716-2.2636-0.39679-4.8008-0.58409-7.5783-0.58532zm158.47 8.8722c4.6641-0.0086 8.2068 0.81821 10.32 2.0024 1.0634 0.58902 1.7597 1.2396 2.1872 1.8792 0.42636 0.6457 0.60996 1.284 0.61613 2.0948-4e-3 2.2304-0.59148 4.2402-1.7252 6.2229-1.9741 3.4589-5.7842 6.7416-10.998 9.5808-7.8051 4.2734-18.628 7.5709-30.313 9.8272-10.166 1.9699-20.991 3.1929-31.114 3.7276 1.5237-2.2436 3.5739-4.8054 6.0688-7.4551 6.0183-6.4126 14.546-13.454 24.183-18.823 9.6387-5.38 20.381-9.0657 30.775-9.057zm144.57 0c4.6641-0.0086 8.213 0.81944 10.32 2.0024 1.0597 0.58779 1.7609 1.2384 2.1872 1.8792 0.4239 0.6457 0.60997 1.2828 0.61612 2.0948-4e-3 2.2316-0.59024 4.2402-1.7252 6.2229-1.9728 3.4589-5.7854 6.7416-10.998 9.5808-7.8026 4.2734-18.6 7.5709-30.283 9.8272-10.175 1.9719-21.013 3.1937-31.145 3.7276 1.5236-2.2436 3.5739-4.8054 6.0688-7.4551 6.0196-6.4126 14.575-13.454 24.214-18.823 9.6411-5.38 20.346-9.0657 30.745-9.057z" fill="#cd1e25"/>

</svg>
